<svg xmlns="http://www.w3.org/2000/svg" viewBox="0 0 64 64" width="64" height="64">
  <defs>
    <clipPath id="logo-clip">
      <ellipse cx="32" cy="32" rx="28" ry="30"/>
    </clipPath>
  </defs>

  <ellipse cx="32" cy="32" rx="28" ry="30" fill="#1e293b"/>

  <g clip-path="url(#logo-clip)" stroke="#bef264" stroke-width="1.3" stroke-opacity="0.42">
    <line x1="4" y1="24" x2="60" y2="24"/>
    <line x1="4" y1="40" x2="60" y2="40"/>
    <line x1="24" y1="2" x2="24" y2="62"/>
    <line x1="40" y1="2" x2="40" y2="62"/>
  </g>

  <ellipse cx="32" cy="32" rx="28" ry="30" fill="none" stroke="#bef264" stroke-width="3"/>

  <ellipse cx="25" cy="27" rx="5" ry="7.5" fill="#bef264" transform="rotate(-15 25 27)"/>
  <ellipse cx="21" cy="18" rx="2" ry="2.3" fill="#bef264"/>
  <ellipse cx="25" cy="17" rx="2" ry="2.3" fill="#bef264"/>
  <ellipse cx="29" cy="18" rx="2" ry="2.3" fill="#bef264"/>

  <ellipse cx="39" cy="37" rx="5" ry="7.5" fill="#bef264" opacity="0.55" transform="rotate(15 39 37)"/>
  <ellipse cx="35" cy="46" rx="2" ry="2.3" fill="#bef264" opacity="0.55"/>
  <ellipse cx="39" cy="47" rx="2" ry="2.3" fill="#bef264" opacity="0.55"/>
  <ellipse cx="43" cy="46" rx="2" ry="2.3" fill="#bef264" opacity="0.55"/>
</svg>
